PathFileType	4	(X/Y/Z)	Run_400 05
DataRate	CameraRate	NumFrames	NumMarkers	Units	OrigDataRate	OrigDataStartFrame	OrigNumFrames
120	120	4	42	mm	120	160	128
Frame#	Time	LASI			RASI			LPSI			RPSI			RTH1			RTH2			RTH3			LTH1			LTH2			LTH3			RTB1			RTB2			RTB3			LTB1			LTB2			LTB3			RCAL			RTOE			RMT5			LCAL			LTOE			LMT5			LACR			RACR			CLAV			C7			RUA1			RUA2			RUA3			RLEL			RMEL			LUA1			LUA2			LUA3			LLEL			LMEL			RFAsuperior			RFAradius			RFAulna			LFAsuperior			LFAradius			LFAulna			
		X1	Y1	Z1	X2	Y2	Z2	X3	Y3	Z3	X4	Y4	Z4	X5	Y5	Z5	X6	Y6	Z6	X7	Y7	Z7	X8	Y8	Z8	X9	Y9	Z9	X10	Y10	Z10	X11	Y11	Z11	X12	Y12	Z12	X13	Y13	Z13	X14	Y14	Z14	X15	Y15	Z15	X16	Y16	Z16	X17	Y17	Z17	X18	Y18	Z18	X19	Y19	Z19	X20	Y20	Z20	X21	Y21	Z21	X22	Y22	Z22	X23	Y23	Z23	X24	Y24	Z24	X25	Y25	Z25	X26	Y26	Z26	X27	Y27	Z27	X28	Y28	Z28	X29	Y29	Z29	X30	Y30	Z30	X31	Y31	Z31	X32	Y32	Z32	X33	Y33	Z33	X34	Y34	Z34	X35	Y35	Z35	X36	Y36	Z36	X37	Y37	Z37	X38	Y38	Z38	X39	Y39	Z39	X40	Y40	Z40	X41	Y41	Z41	X42	Y42	Z42	

160	1.425	968.982397	1052.555956	-448.162886	979.871551	1065.961883	-193.997576	795.4442759999999	1103.328403	-349.003159	798.227807	1099.651468	-263.775233	974.944903	917.511613	-133.839643	1086.295388	865.062724	-144.846294	1096.377065	738.33592	-167.063691	838.510226	852.372649	-487.480134	847.1140789999999	720.825037	-471.379877	741.6161090000001	637.3949689999999	-443.721754	1190.329084	510.252808	-256.12045	1134.611753	463.453716	-189.446047	1090.965666	375.393553	-261.754662	678.25636	405.033318	-371.966552	594.027208	354.08562	-410.939414	544.691071	257.132967	-336.036783	913.950544	297.590818	-279.477498	1106.141595	164.531143	-285.04634	1029.006962	172.254291	-198.565094	374.30064	219.057467	-308.517	547.053215	66.64335199999999	-274.286101	471.996667	71.31839100000001	-362.361581	1030.442825	1537.281036	-463.816473	944.687275	1542.927307	-131.719141	1026.555621	1487.800302	-250.507537	906.3733140000001	1567.995474	-316.858165	869.9292349999999	1474.354563	-59.717184	827.432183	1392.765126	-69.448683	755.824355	1429.931884	-65.169888	655.319898	1330.308488	-39.638015	649.122786	1330.273694	-123.51687	1032.783556	1444.378102	-539.4170370000001	1042.625306	1372.443103	-530.644231	950.311695	1356.365374	-563.2032	972.598359	1196.36579	-615.922535	911.165154	1179.305597	-553.506375	735.540074	1259.946961	-26.265528	873.147458	1163.410227	-92.53392700000001	835.116589	1127.916367	-41.803435	1058.467497	1213.109946	-566.654817	1151.897162	1261.213546	-422.053646	1177.665725	1194.723461	-439.99328	
161	1.433333	975.21646	1056.126931	-447.505679	982.513174	1072.324572	-194.66403	800.735009	1108.809156	-351.65153	802.660357	1106.28949	-266.013	975.9842609999999	923.741273	-134.129694	1086.950386	868.321967	-144.311722	1095.758954	741.404311	-170.797676	835.866772	858.744296	-488.242132	838.179535	727.630116	-471.962641	729.827395	648.935298	-443.437455	1202.948397	509.564261	-256.251643	1150.477412	458.125833	-190.136934	1116.074969	366.269254	-262.990291	660.860485	417.026452	-373.54665	575.589771	367.670852	-413.000107	527.993022	267.947966	-340.219062	947.902415	271.896951	-283.387342	1152.062509	157.463889	-288.367086	1073.402041	156.628179	-203.048093	362.019194	236.00984	-313.097301	518.453084	68.12938800000001	-276.346294	444.813595	78.662379	-364.791118	1033.076349	1544.147526	-461.425571	943.040286	1548.785141	-131.84802	1026.113341	1493.323221	-248.947673	906.887593	1572.792557	-317.1293	866.094818	1482.890388	-61.433716	822.6020569999999	1402.086477	-71.212374	751.3296769999999	1440.418731	-71.204599	648.7115680000001	1341.832347	-46.409169	645.481269	1340.799843	-130.468727	1036.489747	1451.937346	-537.576379	1045.873505	1379.93571	-529.006466	954.150816	1364.094368	-562.439715	975.824125	1203.910419	-614.9633700000001	913.266781	1187.249239	-553.044027	727.896763	1271.059258	-30.271069	866.945153	1172.789266	-91.849113	827.180824	1138.001361	-42.041773	1060.923973	1221.067015	-564.691503	1151.880192	1270.223236	-418.594575	1178.250056	1203.838426	-436.137648	
162	1.441667	981.209108	1059.326793	-447.825161	984.9038849999999	1077.730607	-195.482278	806.017114	1113.911049	-354.43903	806.570737	1112.288376	-268.410812	976.311747	927.886105	-134.756503	1086.661976	869.390985	-144.111496	1093.434363	742.463566	-174.939784	833.547512	865.5091179999999	-489.447628	830.217189	734.739914	-472.8775	720.035919	660.566743	-442.183915	1214.280568	507.745466	-256.403818	1165.595209	451.917057	-190.935716	1141.773645	356.583565	-264.261735	646.0649110000001	429.260483	-373.896424	560.276357	381.182003	-414.103136	513.392713	279.239291	-343.441436	982.7201700000001	247.39148	-286.924784	1196.98947	152.468731	-291.442769	1117.925894	143.094369	-207.502889	352.50485	253.825423	-318.45106	491.439299	71.752815	-279.016535	419.69704	88.22936900000001	-367.449073	1035.466705	1550.492661	-459.259984	941.765597	1553.944084	-132.021111	1025.832278	1498.084413	-247.481665	907.451036	1577.034793	-317.409268	862.7247609999999	1490.811444	-63.220437	818.319255	1410.745726	-72.899373	747.583548	1450.027581	-77.11485399999999	642.902448	1352.312438	-53.049357	642.626975	1350.238345	-137.190374	1039.763758	1459.157756	-536.041284	1048.839563	1387.122583	-527.625121	957.841197	1371.415021	-561.936313	978.739376	1211.037808	-614.158805	914.815384	1194.886819	-552.686921	721.169172	1281.400772	-34.344233	861.504907	1181.372855	-91.25240599999999	820.0747730000001	1147.285606	-42.409383	1063.013123	1228.469122	-562.872639	1151.80124	1278.2787	-415.391545	1178.61751	1211.895889	-432.583579	
163	1.45	986.476387	1062.001534	-448.948171	986.945962	1081.92835	-196.359333	810.957591	1118.511495	-357.24078	809.802877	1117.288783	-270.901716	976.117829	929.592102	-135.736231	1085.745059	868.563587	-144.35725	1090.015429	741.565444	-178.465008	831.8507049999999	872.325906	-490.931817	823.838251	741.607695	-473.8679	712.543396	671.5099740000001	-440.200559	1224.001747	504.837829	-256.603996	1179.709617	444.855144	-191.943264	1166.602762	347.171224	-265.47782	633.709599	441.003597	-373.112061	547.998675	393.911409	-414.38817	500.177057	290.909227	-345.387073	1017.933112	224.169281	-290.177909	1240.364459	149.82761	-294.597947	1162.099988	132.042792	-211.823045	344.320331	272.050395	-323.685146	466.21557	77.991641	-282.327825	396.719879	100.277513	-370.441002	1037.647541	1556.200014	-457.152567	940.750826	1558.275629	-132.277205	1025.643157	1502.06842	-246.21183	908.031871	1580.616625	-317.637311	859.846094	1497.95142	-65.047436	814.5968329999999	1418.511918	-74.595562	744.595225	1458.529932	-82.764538	637.915897	1361.573876	-59.349165	640.50735	1358.466961	-143.440332	1042.667789	1465.93505	-534.757664	1051.514788	1393.843669	-526.457263	961.181164	1378.282825	-561.745709	981.366766	1217.605133	-613.586349	915.99805	1201.982981	-552.565106	715.3554810000001	1290.772028	-38.324541	856.835026	1189.00831	-90.781621	813.871162	1155.565295	-42.898733	1064.794711	1235.21834	-561.144967	1151.684431	1285.324283	-412.444268	1178.825247	1218.80103	-429.336659	
